<svg width="302" height="327" viewBox="0 0 302 327" fill="none" xmlns="http://www.w3.org/2000/svg">
<path d="M36.5815 14.5463C53.3585 3.92349 73.4023 -1.77908 91.0552 0.495771C113.696 3.40882 132.761 17.0991 153.309 25.8691C177.352 36.1317 201.858 32.8687 226.93 37.4287C258.021 43.0798 285.382 65.9621 296.429 95.5352C307.477 125.108 301.798 160.302 282.012 184.913C267.533 202.917 246.006 215.897 237.339 237.307C229.929 255.629 232.289 276.515 225.148 294.868C218.593 311.698 197.591 320.869 181.02 324.029C148.043 330.319 111.12 326.778 80.9045 311.914C50.8955 297.153 26.9976 267.323 25.8228 233.931C24.7304 202.742 42.6616 171.274 33.4693 141.434C28.3682 124.872 16.1564 112.087 7.5103 97.4292C-11.3278 65.4783 7.84007 32.7657 36.5815 14.5463Z" fill="#1F90A2"/>
</svg>
